<svg width="493" height="100" viewBox="0 0 493 100" fill="none" xmlns="http://www.w3.org/2000/svg">
<path d="M0.0402206 0L27.3861 27.3474L54.732 0L82.0794 27.3474L109.425 0L136.771 27.3474L164.117 0L191.464 27.3474L218.81 0L246.156 27.3474L273.503 0L300.849 27.3474L328.195 0L355.542 27.3474L382.887 0L410.234 27.3474L437.58 0L464.926 27.3474L492.273 0V10.4625L470.157 32.5779V32.5794L492.273 54.694V65.1565L464.926 37.8099L437.58 65.1565L410.234 37.8099L382.887 65.1565L355.542 37.8099L328.195 65.1565L300.849 37.8099L273.503 65.1565L246.156 37.8099L218.81 65.1565L191.464 37.8099L164.117 65.1565L136.771 37.8099L109.425 65.1565L82.0794 37.8099L54.732 65.1565L27.3861 37.8099L0.0402206 65.1565V54.694L22.1556 32.5786L0.0402206 10.4625V0ZM27.3861 0C30.5197 0 33.0595 2.53983 33.0595 5.67337C33.0595 8.80692 30.5197 11.346 27.3861 11.346C24.2533 11.346 21.7135 8.80692 21.7135 5.67337C21.7135 2.53983 24.2533 0 27.3861 0ZM464.928 0C468.062 0 470.602 2.53983 470.602 5.67337C470.602 8.80692 468.062 11.346 464.928 11.346C461.795 11.346 459.255 8.80692 459.255 5.67337C459.255 2.53983 461.795 0 464.928 0ZM410.236 0C413.369 0 415.909 2.53983 415.909 5.67337C415.909 8.80692 413.369 11.346 410.236 11.346C407.102 11.346 404.563 8.80692 404.563 5.67337C404.563 2.53983 407.102 0 410.236 0ZM355.543 0C358.676 0 361.216 2.53983 361.216 5.67337C361.216 8.80692 358.676 11.346 355.543 11.346C352.409 11.346 349.87 8.80692 349.87 5.67337C349.87 2.53983 352.409 0 355.543 0ZM300.85 0C303.984 0 306.524 2.53983 306.524 5.67337C306.524 8.80692 303.984 11.346 300.85 11.346C297.717 11.346 295.177 8.80692 295.177 5.67337C295.177 2.53983 297.717 0 300.85 0ZM246.158 0C249.291 0 251.83 2.53983 251.83 5.67337C251.83 8.80692 249.291 11.346 246.158 11.346C243.024 11.346 240.484 8.80692 240.484 5.67337C240.484 2.53983 243.024 0 246.158 0ZM191.464 0C194.598 0 197.138 2.53983 197.138 5.67337C197.138 8.80692 194.598 11.346 191.464 11.346C188.331 11.346 185.792 8.80692 185.792 5.67337C185.792 2.53983 188.331 0 191.464 0ZM136.772 0C139.905 0 142.445 2.53983 142.445 5.67337C142.445 8.80692 139.905 11.346 136.772 11.346C133.638 11.346 131.099 8.80692 131.099 5.67337C131.099 2.53983 133.638 0 136.772 0ZM82.0794 0C85.2129 0 87.752 2.53983 87.752 5.67337C87.752 8.80692 85.2129 11.346 82.0794 11.346C78.9458 11.346 76.406 8.80692 76.406 5.67337C76.406 2.53983 78.9458 0 82.0794 0ZM0.0402206 93.3502H492.273V99.8432H0.0402206V93.3502ZM0.0402206 82.8892H492.273V82.8877L464.928 55.5426L437.581 82.8892L410.235 55.5426L382.889 82.8892L355.542 55.5426L328.196 82.8892L300.849 55.5426L273.503 82.8892L246.157 55.5426L218.81 82.8892L191.464 55.5426L164.117 82.8892L136.771 55.5426L109.424 82.8892L82.0786 55.5426L54.7312 82.8892L27.3854 55.5426L0.0402206 82.8877V82.8892ZM492.273 41.5401C487.323 41.5401 483.31 37.5275 483.31 32.5779C483.31 27.6283 487.323 23.6157 492.273 23.6157V41.5401ZM415.465 32.5779V32.5794L437.58 54.694L459.696 32.5786L437.58 10.4625L415.465 32.5779ZM437.58 23.6157C442.53 23.6157 446.543 27.6283 446.543 32.5779C446.543 37.5275 442.53 41.5401 437.58 41.5401C432.63 41.5401 428.617 37.5275 428.617 32.5779C428.617 27.6283 432.63 23.6157 437.58 23.6157ZM360.772 32.5779V32.5794L382.887 54.694L405.003 32.5786L382.887 10.4625L360.772 32.5779ZM382.887 23.6157C387.837 23.6157 391.849 27.6283 391.849 32.5779C391.849 37.5275 387.837 41.5401 382.887 41.5401C377.938 41.5401 373.926 37.5275 373.926 32.5779C373.926 27.6283 377.938 23.6157 382.887 23.6157ZM306.08 32.5779V32.5794L328.195 54.694L350.31 32.5786L328.195 10.4625L306.08 32.5779ZM328.195 23.6157C333.145 23.6157 337.158 27.6283 337.158 32.5779C337.158 37.5275 333.145 41.5401 328.195 41.5401C323.245 41.5401 319.232 37.5275 319.232 32.5779C319.232 27.6283 323.245 23.6157 328.195 23.6157ZM251.387 32.5779V32.5794L273.502 54.694L295.617 32.5786L273.502 10.4625L251.387 32.5779ZM273.502 23.6157C278.452 23.6157 282.465 27.6283 282.465 32.5779C282.465 37.5275 278.452 41.5401 273.502 41.5401C268.553 41.5401 264.541 37.5275 264.541 32.5779C264.541 27.6283 268.553 23.6157 273.502 23.6157ZM196.695 32.5779V32.5794L218.81 54.694L240.926 32.5786L218.81 10.4625L196.695 32.5779ZM218.81 23.6157C223.76 23.6157 227.772 27.6283 227.772 32.5779C227.772 37.5275 223.76 41.5401 218.81 41.5401C213.86 41.5401 209.847 37.5275 209.847 32.5779C209.847 27.6283 213.86 23.6157 218.81 23.6157ZM142.002 32.5779V32.5794L164.117 54.694L186.232 32.5786L164.117 10.4625L142.002 32.5779ZM164.117 23.6157C169.067 23.6157 173.079 27.6283 173.079 32.5779C173.079 37.5275 169.067 41.5401 164.117 41.5401C159.167 41.5401 155.155 37.5275 155.155 32.5779C155.155 27.6283 159.167 23.6157 164.117 23.6157ZM87.3099 32.5779V32.5794L109.425 54.694L131.541 32.5786L109.425 10.4625L87.3099 32.5779ZM109.425 23.6157C114.374 23.6157 118.387 27.6283 118.387 32.5779C118.387 37.5275 114.374 41.5401 109.425 41.5401C104.475 41.5401 100.462 37.5275 100.462 32.5779C100.462 27.6283 104.475 23.6157 109.425 23.6157ZM32.6166 32.5779V32.5794L54.732 54.694L76.8481 32.5786L54.732 10.4625L32.6166 32.5779ZM54.732 23.6157C59.6816 23.6157 63.6942 27.6283 63.6942 32.5779C63.6942 37.5275 59.6816 41.5401 54.732 41.5401C49.7824 41.5401 45.7698 37.5275 45.7698 32.5779C45.7698 27.6283 49.7824 23.6157 54.732 23.6157ZM0.0402206 23.6157C4.9891 23.6157 9.0017 27.6283 9.0017 32.5779C9.0017 37.5275 4.9891 41.5401 0.0402206 41.5401V23.6157Z" fill="#23190A"/>
</svg>
