<svg width="1233" height="210" viewBox="0 0 1233 210" fill="none" xmlns="http://www.w3.org/2000/svg">
<path d="M4.41181 207.083C3.21354 207.083 2.17867 206.306 1.3072 204.75C0.435735 203.194 0 201.347 0 199.208V10.7917C0 8.65278 0.435735 6.80556 1.3072 5.25C2.17867 3.69444 3.21354 2.91666 4.41181 2.91666H58.6608C69.1184 2.91666 77.6697 5.25 84.3147 9.91666C90.9596 14.3889 95.8617 21.1944 99.0207 30.3333C102.289 39.2778 103.923 50.5556 103.923 64.1667C103.923 70.3889 103.16 76.0278 101.635 81.0833C100.219 85.9445 98.4761 90.0278 96.4063 93.3333C94.4455 96.6389 92.5936 99.0694 90.8507 100.625C94.9902 103.736 98.585 109.181 101.635 116.958C104.794 124.542 106.374 133.194 106.374 142.917C106.374 157.5 104.576 169.556 100.982 179.083C97.3867 188.417 92.1579 195.417 85.2951 200.083C78.5412 204.75 70.2078 207.083 60.2948 207.083H4.41181ZM40.8501 156.917H56.0464C58.7697 156.917 60.6761 155.361 61.7654 152.25C62.9637 148.944 63.5628 145.736 63.5628 142.625C63.5628 139.125 62.9092 135.917 61.602 133C60.4037 129.889 58.5519 128.333 56.0464 128.333H40.8501V156.917ZM40.8501 79.625H54.5758C56.9723 79.625 58.6608 78.2639 59.6412 75.5417C60.7305 72.625 61.2752 69.6111 61.2752 66.5C61.2752 63.3889 60.7305 60.375 59.6412 57.4583C58.6608 54.5417 56.9723 53.0833 54.5758 53.0833H40.8501V79.625Z" fill="white"/>
<path d="M124.409 207.083C123.211 207.083 122.176 206.306 121.304 204.75C120.433 203.194 119.997 201.347 119.997 199.208V10.7917C119.997 8.65278 120.433 6.80556 121.304 5.25C122.176 3.69444 123.211 2.91666 124.409 2.91666H157.089C158.287 2.91666 159.322 3.69444 160.194 5.25C161.065 6.80556 161.501 8.65278 161.501 10.7917V147.292H206.763C207.961 147.292 208.996 148.069 209.868 149.625C210.739 151.181 211.175 153.028 211.175 155.167V199.208C211.175 201.347 210.739 203.194 209.868 204.75C208.996 206.306 207.961 207.083 206.763 207.083H124.409Z" fill="white"/>
<path d="M216.89 207.083C215.91 207.083 215.038 206.5 214.276 205.333C213.622 203.972 213.295 202.417 213.295 200.667C213.295 199.889 213.35 199.208 213.459 198.625L249.897 12.5417C250.224 10.4028 250.986 8.26389 252.184 6.12501C253.383 3.98611 255.071 2.91666 257.25 2.91666H292.708C294.887 2.91666 296.575 3.98611 297.773 6.12501C298.971 8.26389 299.734 10.4028 300.061 12.5417L336.499 198.625C336.608 199.208 336.663 199.889 336.663 200.667C336.663 202.417 336.281 203.972 335.519 205.333C334.865 206.5 334.048 207.083 333.068 207.083H302.839C300.769 207.083 299.244 206.306 298.263 204.75C297.392 203 296.793 201.347 296.466 199.792L292.544 180.542H257.413L253.492 199.792C253.165 201.347 252.566 203 251.694 204.75C250.823 206.306 249.298 207.083 247.119 207.083H216.89ZM265.747 123.667H284.211L274.897 69.4167L265.747 123.667Z" fill="white"/>
<path d="M394.716 210C384.258 210 374.999 207.278 366.938 201.833C358.876 196.389 352.449 187.833 347.656 176.167C342.972 164.5 340.412 149.431 339.977 130.958C339.868 122.986 339.813 114.431 339.813 105.292C339.813 96.1528 339.868 87.4028 339.977 79.0417C340.412 60.9583 343.027 46.0833 347.82 34.4167C352.722 22.75 359.203 14.0972 367.264 8.45833C375.434 2.81944 384.585 0 394.716 0C401.687 0 408.387 1.45833 414.814 4.375C421.35 7.09722 427.232 11.4722 432.461 17.5C437.69 23.5278 441.83 31.3056 444.88 40.8333C448.039 50.1667 449.673 61.4444 449.782 74.6667C449.782 76.4167 449.4 77.9722 448.638 79.3333C447.984 80.5 447.167 81.0833 446.187 81.0833H412.853C411.11 81.0833 409.803 80.5 408.932 79.3333C408.169 77.9722 407.461 75.7361 406.807 72.625C405.609 66.4028 403.975 62.2222 401.905 60.0833C399.836 57.9444 397.385 56.875 394.552 56.875C390.957 56.875 388.071 58.625 385.892 62.125C383.822 65.4306 382.678 71.5556 382.461 80.5C382.134 96.4444 382.134 112.778 382.461 129.5C382.678 138.444 383.822 144.667 385.892 148.167C388.071 151.472 390.957 153.125 394.552 153.125C397.385 153.125 399.836 151.958 401.905 149.625C404.084 147.292 405.718 143.208 406.807 137.375C407.352 134.069 408.06 131.833 408.932 130.667C409.803 129.5 411.11 128.917 412.853 128.917H446.187C447.167 128.917 447.984 129.597 448.638 130.958C449.4 132.125 449.782 133.583 449.782 135.333C449.673 148.556 448.039 159.931 444.88 169.458C441.83 178.792 437.69 186.472 432.461 192.5C427.232 198.528 421.35 203 414.814 205.917C408.387 208.639 401.687 210 394.716 210Z" fill="white"/>
<path d="M467.167 207.083C465.969 207.083 464.934 206.306 464.063 204.75C463.191 203.194 462.755 201.347 462.755 199.208V10.7917C462.755 8.65278 463.191 6.80556 464.063 5.25C464.934 3.69444 465.969 2.91666 467.167 2.91666H498.377C499.575 2.91666 500.61 3.69444 501.481 5.25C502.353 6.80556 502.789 8.65278 502.789 10.7917V68.5417L521.253 9.33333C521.797 7.77778 522.56 6.31944 523.54 4.95834C524.63 3.59722 526.046 2.91666 527.789 2.91666H563.9C564.881 2.91666 565.698 3.59722 566.351 4.95834C567.114 6.125 567.495 7.58333 567.495 9.33333C567.495 10.5 567.332 11.5694 567.005 12.5417L537.593 100.625L569.783 197.458C570.11 198.236 570.273 199.306 570.273 200.667C570.273 202.417 569.892 203.972 569.129 205.333C568.476 206.5 567.659 207.083 566.678 207.083H529.423C527.244 207.083 525.61 206.208 524.521 204.458C523.54 202.514 522.941 201.153 522.723 200.375L502.789 136.792V199.208C502.789 201.347 502.353 203.194 501.481 204.75C500.61 206.306 499.575 207.083 498.377 207.083H467.167Z" fill="white"/>
<path d="M637.59 207.083C635.411 207.083 633.723 206.014 632.525 203.875C631.326 201.736 630.564 199.597 630.237 197.458L599.518 11.375C599.409 10.5972 599.354 9.91667 599.354 9.33333C599.354 7.58333 599.681 6.125 600.335 4.95834C601.097 3.59722 601.969 2.91666 602.949 2.91666H633.342C635.52 2.91666 637.209 3.98611 638.407 6.12501C639.605 8.26389 640.368 10.4028 640.695 12.5417L656.218 121.042L671.741 12.5417C672.068 10.4028 672.83 8.26389 674.029 6.12501C675.227 3.98611 676.915 2.91666 679.094 2.91666H709.486C710.467 2.91666 711.284 3.59722 711.937 4.95834C712.7 6.125 713.081 7.58333 713.081 9.33333C713.081 9.91667 713.027 10.5972 712.918 11.375L682.198 197.458C681.872 199.597 681.109 201.736 679.911 203.875C678.713 206.014 677.024 207.083 674.846 207.083H637.59Z" fill="white"/>
<path d="M772.416 210C761.741 210 752.372 207.083 744.311 201.25C736.359 195.417 730.041 186.667 725.357 175C720.781 163.139 718.276 148.556 717.84 131.25C717.731 123.278 717.677 114.819 717.677 105.875C717.677 96.9306 717.731 88.2778 717.84 79.9167C718.276 62.8055 720.781 48.3194 725.357 36.4583C729.932 24.5972 736.25 15.5556 744.311 9.33333C752.372 3.11111 761.741 0 772.416 0C783.091 0 792.46 3.11111 800.521 9.33333C808.582 15.5556 814.9 24.5972 819.475 36.4583C824.159 48.3194 826.665 62.8055 826.992 79.9167C827.21 88.2778 827.319 96.9306 827.319 105.875C827.319 114.819 827.21 123.278 826.992 131.25C826.556 148.556 823.996 163.139 819.312 175C814.737 186.667 808.419 195.417 800.358 201.25C792.405 207.083 783.091 210 772.416 210ZM772.416 153.125C776.011 153.125 778.898 151.278 781.076 147.583C783.255 143.694 784.399 137.667 784.508 129.5C784.726 121.139 784.834 112.875 784.834 104.708C784.834 96.5417 784.726 88.4722 784.508 80.5C784.399 75.0556 783.8 70.5833 782.71 67.0833C781.73 63.5833 780.368 61.0555 778.625 59.5C776.882 57.75 774.813 56.875 772.416 56.875C770.128 56.875 768.059 57.75 766.207 59.5C764.464 61.0555 763.048 63.5833 761.958 67.0833C760.978 70.5833 760.433 75.0556 760.324 80.5C760.215 88.4722 760.161 96.5417 760.161 104.708C760.161 112.875 760.215 121.139 760.324 129.5C760.542 137.667 761.686 143.694 763.756 147.583C765.934 151.278 768.821 153.125 772.416 153.125Z" fill="white"/>
<path d="M846.467 207.083C845.269 207.083 844.234 206.306 843.362 204.75C842.491 203.194 842.055 201.347 842.055 199.208V10.7917C842.055 8.65278 842.491 6.80556 843.362 5.25C844.234 3.69444 845.269 2.91666 846.467 2.91666H879.801C880.999 2.91666 882.034 3.69444 882.905 5.25C883.777 6.80556 884.213 8.65278 884.213 10.7917V199.208C884.213 201.347 883.777 203.194 882.905 204.75C882.034 206.306 880.999 207.083 879.801 207.083H846.467Z" fill="white"/>
<path d="M954.011 210C943.554 210 934.294 207.278 926.233 201.833C918.172 196.389 911.745 187.833 906.952 176.167C902.268 164.5 899.708 149.431 899.272 130.958C899.163 122.986 899.109 114.431 899.109 105.292C899.109 96.1528 899.163 87.4028 899.272 79.0417C899.708 60.9583 902.322 46.0833 907.116 34.4167C912.018 22.75 918.499 14.0972 926.56 8.45833C934.73 2.81944 943.881 0 954.011 0C960.983 0 967.683 1.45833 974.11 4.375C980.646 7.09722 986.528 11.4722 991.757 17.5C996.986 23.5278 1001.13 31.3056 1004.18 40.8333C1007.33 50.1667 1008.97 61.4444 1009.08 74.6667C1009.08 76.4167 1008.7 77.9722 1007.93 79.3333C1007.28 80.5 1006.46 81.0833 1005.48 81.0833H972.149C970.406 81.0833 969.099 80.5 968.227 79.3333C967.465 77.9722 966.757 75.7361 966.103 72.625C964.905 66.4028 963.271 62.2222 961.201 60.0833C959.131 57.9444 956.68 56.875 953.848 56.875C950.253 56.875 947.366 58.625 945.188 62.125C943.118 65.4306 941.974 71.5556 941.756 80.5C941.43 96.4444 941.43 112.778 941.756 129.5C941.974 138.444 943.118 144.667 945.188 148.167C947.366 151.472 950.253 153.125 953.848 153.125C956.68 153.125 959.131 151.958 961.201 149.625C963.38 147.292 965.014 143.208 966.103 137.375C966.648 134.069 967.356 131.833 968.227 130.667C969.099 129.5 970.406 128.917 972.149 128.917H1005.48C1006.46 128.917 1007.28 129.597 1007.93 130.958C1008.7 132.125 1009.08 133.583 1009.08 135.333C1008.97 148.556 1007.33 159.931 1004.18 169.458C1001.13 178.792 996.986 186.472 991.757 192.5C986.528 198.528 980.646 203 974.11 205.917C967.683 208.639 960.983 210 954.011 210Z" fill="white"/>
<path d="M1026.46 207.083C1025.26 207.083 1024.23 206.306 1023.36 204.75C1022.49 203.194 1022.05 201.347 1022.05 199.208V10.7917C1022.05 8.65278 1022.49 6.80556 1023.36 5.25C1024.23 3.69444 1025.26 2.91666 1026.46 2.91666H1110.29C1111.49 2.91666 1112.52 3.69444 1113.39 5.25C1114.26 6.80556 1114.7 8.65278 1114.7 10.7917V51.9167C1114.7 54.0556 1114.26 55.9028 1113.39 57.4583C1112.52 59.0139 1111.49 59.7917 1110.29 59.7917H1061.27V78.1667H1106.69C1107.89 78.1667 1108.93 78.9444 1109.8 80.5C1110.67 82.0555 1111.1 83.9028 1111.1 86.0417V123.958C1111.1 126.097 1110.67 127.944 1109.8 129.5C1108.93 131.056 1107.89 131.833 1106.69 131.833H1061.27V150.208H1111.59C1112.79 150.208 1113.83 150.986 1114.7 152.542C1115.57 154.097 1116.01 155.944 1116.01 158.083V199.208C1116.01 201.347 1115.57 203.194 1114.7 204.75C1113.83 206.306 1112.79 207.083 1111.59 207.083H1026.46Z" fill="white"/>
<path d="M1178.75 210C1166.66 210 1156.69 207.083 1148.85 201.25C1141.01 195.417 1135.12 187.736 1131.2 178.208C1127.28 168.681 1125.21 158.569 1124.99 147.875C1124.99 146.125 1125.32 144.667 1125.97 143.5C1126.74 142.139 1127.61 141.458 1128.59 141.458H1159.63C1161.38 141.458 1162.68 141.944 1163.55 142.917C1164.54 143.694 1165.57 144.861 1166.66 146.417C1167.75 147.778 1168.84 149.042 1169.93 150.208C1171.13 151.181 1172.43 151.958 1173.85 152.542C1175.37 152.931 1177.01 153.125 1178.75 153.125C1182.45 153.125 1185.4 152.444 1187.57 151.083C1189.86 149.528 1191.01 147.486 1191.01 144.958C1191.01 142.625 1190.35 140.681 1189.05 139.125C1187.85 137.569 1185.72 136.208 1182.67 135.042C1179.62 133.681 1175.37 132.417 1169.93 131.25C1161.32 129.111 1153.86 125.514 1147.54 120.458C1141.22 115.403 1136.32 108.5 1132.84 99.75C1129.46 90.8055 1127.77 79.9167 1127.77 67.0833C1127.77 53.8611 1129.84 42.1944 1133.98 32.0833C1138.23 21.9722 1144.06 14.0972 1151.46 8.45833C1158.98 2.81944 1167.69 0 1177.61 0C1185.78 0 1193.02 1.94444 1199.34 5.83333C1205.66 9.52778 1211 14.4861 1215.35 20.7083C1219.71 26.7361 1223.03 33.25 1225.32 40.25C1227.61 47.25 1228.81 53.9583 1228.91 60.375C1228.91 62.125 1228.53 63.6806 1227.77 65.0417C1227.12 66.2083 1226.35 66.7917 1225.48 66.7917H1192.8C1191.28 66.7917 1190.03 66.4028 1189.05 65.625C1188.17 64.8472 1187.25 63.6806 1186.27 62.125C1185.72 61.1528 1184.69 60.0833 1183.16 58.9167C1181.75 57.5555 1179.89 56.875 1177.61 56.875C1174.88 56.875 1172.87 57.6528 1171.56 59.2083C1170.36 60.5695 1169.76 62.5139 1169.76 65.0417C1169.76 66.7917 1170.25 68.4444 1171.23 70C1172.21 71.5555 1174.01 72.9167 1176.63 74.0833C1179.24 75.25 1183 76.4167 1187.9 77.5833C1198.79 79.9167 1207.51 83.7083 1214.05 88.9583C1220.69 94.0139 1225.48 100.819 1228.42 109.375C1231.47 117.931 1233 128.528 1233 141.167C1233 155.361 1230.6 167.611 1225.81 177.917C1221.13 188.222 1214.7 196.194 1206.53 201.833C1198.36 207.278 1189.1 210 1178.75 210Z" fill="white"/>
</svg>
